<?xml version="1.0" encoding="UTF-8" standalone="no"?>
<svg
   xmlns:dc="http://purl.org/dc/elements/1.1/"
   xmlns:cc="http://creativecommons.org/ns#"
   xmlns:rdf="http://www.w3.org/1999/02/22-rdf-syntax-ns#"
   xmlns:svg="http://www.w3.org/2000/svg"
   xmlns="http://www.w3.org/2000/svg"
   id="svg4"
   version="1.1"
   viewBox="0 0 1550.8629 1552"
   height="24"
   width="24">
  <metadata
     id="metadata10">
    <rdf:RDF>
      <cc:Work
         rdf:about="">
        <dc:format>image/svg+xml</dc:format>
        <dc:type
           rdf:resource="http://purl.org/dc/dcmitype/StillImage" />
        <dc:title></dc:title>
      </cc:Work>
    </rdf:RDF>
  </metadata>
  <defs
     id="defs8" />
  <path
     style="fill:#15b715;fill-opacity:1;stroke:none;stroke-width:0.91570807"
     id="path2"
     d="m 1170.375,772 -429.32291,512 c -5.59015,6 -12.01882,9 -19.286,9 -7.26718,0 -13.69583,-3 -19.28597,-9 L 460.98598,996 c -5.03112,-6.6667 -7.5467,-14.3333 -7.5467,-23 0,-8.6667 2.51558,-16 7.5467,-22 l 38.57198,-46 c 5.03112,-6 11.18028,-9 18.44746,-9 7.26719,0 13.69586,3 19.28599,9 l 184.47468,220 372.30341,-444 c 5.5902,-6 12.0188,-9 19.2861,-9 7.2671,0 13.4163,2.99997 18.4475,9 l 38.5719,46 c 5.0311,5.99996 7.5466,13.33333 7.5466,22 0,8.66667 -2.5155,16.33333 -7.5466,23 z M 185.11248,1424 H 1365.7504 V 506 H 185.11248 Z M 507.10465,208 v -48 c 0,0 -2.51557,-17 -7.54669,-23 -5.03113,-6 -11.4598,-9 -19.28599,-9 h -53.66536 c -7.82621,0 -14.25487,3 -19.286,9 -5.03112,6 -7.54668,23 -7.54668,23 v 48 c 0,0 2.51556,17 7.54668,23 5.03113,6 11.45979,9 19.286,9 h 53.66536 c 7.82619,0 14.25486,-3 19.28599,-9 5.03112,-6 7.54669,-23 7.54669,-23 z m 643.98435,0 v -48 c 0,0 -2.5156,-17 -7.5467,-23 -5.0311,-6 -11.4598,-9 -19.2861,-9 h -53.6653 c -7.8262,0 -14.2548,3 -19.286,9 -5.0311,6 -7.5466,23 -7.5466,23 v 48 c 0,0 2.5155,17 7.5466,23 5.0312,6 11.4598,9 19.286,9 h 53.6653 c 7.8263,0 14.255,-3 19.2861,-9 5.0311,-6 7.5467,-23 7.5467,-23 z m 321.9922,176 v 1040 c 0,34.6667 -10.6214,64.6667 -31.8638,90 -21.2425,25.3333 -46.3981,38 -75.467,38 H 185.11248 c -29.06875,0 -54.22438,-12.6667 -75.46692,-38 -21.242547,-25.3333 -31.863817,-55.3333 -31.863817,-90 V 384 c 0,-34.66667 10.62127,-64.66667 31.863817,-90 21.24254,-25.33333 46.39817,-38 75.46692,-38 H 292.4432 v -96 c 0,-44 13.13684,-81.66667 39.41051,-113 26.27365,-31.33333 57.85796,-47 94.7529,-47 h 53.66536 c 36.89494,0 68.47924,15.66667 94.75291,47 26.27366,31.33333 39.4105,69 39.4105,113 v 96 h 160.6251 161.36709 v -96 c 0,-44 13.1368,-81.66667 39.4105,-113 C 1002.1117,15.66667 1033.696,0 1070.5909,0 h 53.6653 c 36.895,0 68.4794,15.66667 94.7531,47 26.2735,31.33333 39.4105,69 39.4105,113 v 96 h 107.3306 c 29.0689,0 54.2245,12.66667 75.467,38 21.2424,25.33333 31.8638,55.33333 31.8638,90 z" />
</svg>
